<svg width="1600" height="1200" viewBox="0 0 1600 1200" fill="none" xmlns="http://www.w3.org/2000/svg">
  <rect width="1600" height="1200" fill="#0D1117"/>
  <rect x="96" y="96" width="1408" height="1008" rx="36" fill="#161B22" stroke="#30363D" stroke-width="8"/>
  <rect x="176" y="176" width="376" height="376" rx="36" fill="#243345"/>
  <rect x="612" y="176" width="376" height="376" rx="36" fill="#1E3A2D"/>
  <rect x="1048" y="176" width="376" height="376" rx="36" fill="#382736"/>
  <rect x="394" y="624" width="376" height="376" rx="36" fill="#2B233B"/>
  <rect x="830" y="624" width="376" height="376" rx="36" fill="#262A3E"/>
  <circle cx="364" cy="364" r="94" fill="#E6EDF3"/>
  <circle cx="800" cy="364" r="94" fill="#C9D1D9"/>
  <circle cx="1236" cy="364" r="94" fill="#E6EDF3"/>
  <circle cx="582" cy="812" r="94" fill="#C9D1D9"/>
  <circle cx="1018" cy="812" r="94" fill="#E6EDF3"/>
  <circle cx="330" cy="336" r="16" fill="#0D1117"/>
  <circle cx="398" cy="336" r="16" fill="#0D1117"/>
  <path d="M314 396C346 430 382 430 414 396" stroke="#0D1117" stroke-width="14" stroke-linecap="round"/>
  <circle cx="766" cy="332" r="16" fill="#0D1117"/>
  <circle cx="834" cy="332" r="16" fill="#0D1117"/>
  <path d="M750 414C782 378 818 378 850 414" stroke="#0D1117" stroke-width="14" stroke-linecap="round"/>
  <circle cx="1202" cy="336" r="16" fill="#0D1117"/>
  <circle cx="1270" cy="336" r="16" fill="#0D1117"/>
  <path d="M1186 404H1286" stroke="#0D1117" stroke-width="14" stroke-linecap="round"/>
  <circle cx="548" cy="784" r="16" fill="#0D1117"/>
  <circle cx="616" cy="784" r="16" fill="#0D1117"/>
  <path d="M530 846C560 896 604 896 634 846" stroke="#0D1117" stroke-width="14" stroke-linecap="round"/>
  <circle cx="984" cy="784" r="16" fill="#0D1117"/>
  <circle cx="1052" cy="784" r="16" fill="#0D1117"/>
  <path d="M970 858C1000 820 1036 820 1066 858" stroke="#0D1117" stroke-width="14" stroke-linecap="round"/>
  <text x="96" y="80" fill="#3EAF7C" font-size="64" font-family="Inter, Arial, sans-serif" font-weight="700">Agent Sticker Pack</text>
  <text x="96" y="1142" fill="#8B949E" font-size="34" font-family="Inter, Arial, sans-serif">Expressions, reactions, and visual identity studies</text>
</svg>
