<svg width="1600" height="1200" viewBox="0 0 1600 1200" fill="none" xmlns="http://www.w3.org/2000/svg">
  <rect width="1600" height="1200" fill="#0D1117"/>
  <rect x="240" y="120" width="1120" height="960" rx="72" fill="#161B22" stroke="#30363D" stroke-width="8"/>
  <rect x="312" y="220" width="976" height="664" rx="40" fill="#101923" stroke="#27313A" stroke-width="4"/>
  <rect x="392" y="300" width="352" height="440" rx="28" fill="#172536"/>
  <rect x="776" y="300" width="432" height="120" rx="24" fill="#213346"/>
  <rect x="776" y="454" width="432" height="120" rx="24" fill="#162534"/>
  <rect x="776" y="608" width="432" height="120" rx="24" fill="#162534"/>
  <circle cx="552" cy="520" r="88" fill="#3EAF7C"/>
  <rect x="812" y="338" width="220" height="18" rx="9" fill="#E6EDF3"/>
  <rect x="812" y="490" width="274" height="18" rx="9" fill="#E6EDF3" fill-opacity="0.9"/>
  <rect x="812" y="644" width="248" height="18" rx="9" fill="#E6EDF3" fill-opacity="0.9"/>
  <rect x="520" y="916" width="560" height="24" rx="12" fill="#30363D"/>
  <text x="240" y="82" fill="#58A6FF" font-size="64" font-family="Inter, Arial, sans-serif" font-weight="700">Android App Flow</text>
  <text x="240" y="1142" fill="#8B949E" font-size="34" font-family="Inter, Arial, sans-serif">Screen structure, local data, and mobile interaction</text>
</svg>
